<svg xmlns="http://www.w3.org/2000/svg" width="37" height="51" viewBox="0 0 37 51" fill="none"><path d="M19.3826 0.789062C22.024 3.4327 24.3446 6.51547 25.4671 10.1281C26.8869 14.2795 26.2105 18.9871 23.9977 22.7344C22.7674 25.0092 20.919 26.8448 19.403 28.9146C17.4409 31.6783 15.9628 35.0509 16.3418 38.5143C16.5226 40.9823 17.8899 43.2834 19.8403 44.7647C21.849 46.2959 24.4496 46.9927 26.9539 46.7409C28.6273 46.5447 30.2133 45.9065 31.6681 45.0692C30.0763 46.9019 27.8839 48.2135 25.4904 48.6438C22.0589 49.2528 18.3505 48.7873 15.3535 46.9283C10.7646 44.2466 8.11744 38.8305 8.27777 33.5666C8.2253 30.437 9.03578 27.3425 10.2894 24.494C7.8463 27.6382 6.40316 31.6022 6.54019 35.613C6.71803 40.4143 8.91042 45.1688 12.6159 48.2486C13.8783 49.3025 15.3302 50.0813 16.8112 50.7781C12.6567 50.3536 8.56058 48.6321 5.65974 45.5611C1.89885 41.6702 0.0271583 36.0463 0.607332 30.6683C1.10003 26.2007 3.53732 22.2016 6.58102 19.0076C8.55186 16.8675 10.9046 15.1314 12.9046 13.0206C15.0911 10.7166 17.0853 8.16077 18.3097 5.20388C18.8782 3.79572 19.4292 2.33483 19.3826 0.789062Z" fill="#0A2C0F"/><path d="M28.674 16.2908C28.9131 14.4377 28.5312 12.5933 28.4554 10.7459C31.6565 15.6526 34.5282 20.9487 35.5282 26.798C36.3008 30.9201 36.5194 35.5135 34.2949 39.2433C32.1346 43.1166 27.126 45.0078 22.9511 43.6113C20.5138 42.7682 18.7762 40.2709 18.8345 37.6829C18.6975 33.9883 20.9715 30.8059 23.2426 28.1213C26.1143 24.8102 28.295 20.7174 28.674 16.2908Z" fill="white"/></svg>